<?xml version="1.0" standalone="no"?>
<!DOCTYPE svg PUBLIC "-//W3C//DTD SVG 20010904//EN"
 "http://www.w3.org/TR/2001/REC-SVG-20010904/DTD/svg10.dtd">
<svg version="1.0" xmlns="http://www.w3.org/2000/svg"
 width="512.000000pt" height="512.000000pt" viewBox="0 0 512.000000 512.000000"
 preserveAspectRatio="xMidYMid meet">

<g transform="translate(0.000000,512.000000) scale(0.100000,-0.100000)"
fill="#000000" stroke="none">
<path d="M22 5097 l-22 -23 0 -2515 0 -2516 23 -21 23 -22 2515 0 2516 0 21
23 c45 48 43 51 -308 402 l-330 330 -2 2164 -3 2163 -24 19 c-22 18 -48 19
-672 19 -636 0 -649 0 -669 -20 -20 -20 -20 -33 -20 -1480 0 -803 -3 -1460 -7
-1460 -5 0 -674 666 -1488 1480 -1198 1198 -1485 1480 -1506 1480 -14 0 -35
-10 -47 -23z m3288 -1654 l0 -1538 -55 57 -55 56 0 1481 0 1481 55 0 55 0 0
-1537z m1008 1275 l-3 -263 -270 -5 c-148 -3 -271 -7 -271 -8 -1 -1 -7 -15
-14 -31 -11 -27 -5 -56 17 -81 3 -3 125 -7 271 -10 l267 -5 3 -112 3 -113
-118 0 c-142 0 -163 -9 -163 -70 0 -61 21 -70 163 -70 l118 0 -3 -112 -3 -113
-270 -5 c-148 -3 -271 -7 -271 -8 -1 -1 -7 -15 -14 -31 -11 -27 -5 -56 17 -81
3 -3 125 -7 271 -10 l267 -5 3 -112 3 -113 -118 0 c-142 0 -163 -9 -163 -70 0
-61 21 -70 163 -70 l118 0 -3 -112 -3 -113 -270 -5 c-148 -3 -271 -7 -271 -8
-1 -1 -7 -15 -14 -31 -11 -27 -5 -56 17 -81 3 -3 125 -7 271 -10 l267 -5 3
-112 3 -113 -118 0 c-142 0 -163 -9 -163 -70 0 -61 21 -70 163 -70 l118 0 -3
-112 -3 -113 -270 -5 c-148 -3 -271 -7 -271 -8 -1 -1 -7 -15 -14 -31 -11 -27
-5 -56 17 -81 3 -3 125 -7 271 -10 l267 -5 3 -112 3 -113 -118 0 c-142 0 -163
-9 -163 -70 0 -61 21 -70 162 -70 l118 0 0 -425 c0 -234 -3 -425 -7 -425 -5 0
-200 192 -435 427 l-428 428 0 1607 0 1608 435 0 435 0 -2 -262z m-1803 -2208
l2370 -2370 -448 0 -447 0 0 262 c0 229 -2 264 -17 280 -22 25 -75 23 -99 -3
-17 -19 -19 -42 -22 -280 l-3 -259 -109 0 -110 0 0 114 c0 99 -3 117 -21 140
-25 32 -64 34 -96 4 -22 -20 -23 -29 -23 -140 l0 -118 -115 0 -115 0 0 262 c0
229 -2 264 -17 280 -22 25 -75 23 -99 -3 -17 -19 -19 -42 -22 -280 l-3 -259
-109 0 -110 0 0 114 c0 99 -3 117 -21 140 -26 33 -70 35 -99 4 -18 -19 -20
-35 -20 -140 l0 -118 -115 0 -115 0 0 262 c0 229 -2 264 -17 280 -22 25 -75
23 -99 -3 -17 -19 -19 -42 -22 -280 l-3 -259 -109 0 -110 0 0 114 c0 99 -3
117 -21 140 -25 32 -70 35 -99 6 -18 -18 -20 -33 -20 -140 l0 -120 -115 0
-115 0 0 262 c0 229 -2 264 -17 280 -22 25 -75 23 -99 -3 -17 -19 -19 -42 -22
-280 l-3 -259 -109 0 -110 0 0 114 c0 99 -3 117 -21 140 -25 32 -70 35 -99 6
-18 -18 -20 -33 -20 -140 l0 -120 -115 0 -115 0 0 258 c0 217 -2 261 -16 280
-20 29 -74 30 -100 1 -17 -19 -19 -42 -22 -280 l-3 -259 -394 0 -395 0 0 395
0 394 259 3 c238 3 261 5 280 22 29 26 28 80 -1 100 -19 14 -63 16 -280 16
l-258 0 0 115 0 115 120 0 c107 0 122 2 140 20 29 29 26 74 -6 99 -23 18 -41
21 -140 21 l-114 0 0 110 0 109 259 3 c238 3 261 5 280 22 29 26 28 80 -1 100
-19 14 -63 16 -280 16 l-258 0 0 115 0 115 118 0 c105 0 121 2 140 20 31 29
29 73 -4 99 -23 18 -41 21 -140 21 l-114 0 0 110 0 109 259 3 c238 3 261 5
280 22 25 23 28 72 4 98 -15 17 -37 18 -280 18 l-263 0 0 115 0 115 117 0
c106 0 119 2 140 22 31 29 30 71 -3 97 -23 18 -41 21 -140 21 l-114 0 0 110 0
109 259 3 c238 3 261 5 280 22 25 23 28 72 4 98 -15 17 -37 18 -280 18 l-263
0 0 115 0 115 117 0 c106 0 119 2 140 22 31 29 30 71 -3 97 -23 18 -41 21
-140 21 l-114 0 0 110 0 109 259 3 c238 3 261 5 280 22 25 23 28 72 4 98 -15
17 -37 18 -280 18 l-263 0 0 445 c0 245 1 445 3 445 1 0 1069 -1066 2372
-2370z"/>
<path d="M951 2834 c-21 -27 -21 -31 -21 -930 0 -641 3 -910 11 -927 6 -14 22
-30 36 -36 35 -16 1816 -16 1846 0 29 16 37 28 37 64 0 27 -106 136 -913 943
-826 826 -915 912 -944 912 -22 0 -38 -8 -52 -26z m901 -981 c423 -423 768
-771 768 -775 0 -5 -349 -8 -775 -8 l-775 0 0 775 c0 426 3 775 7 775 5 0 353
-345 775 -767z"/>
</g>
</svg>
