<?xml version="1.0" standalone="no"?>
<!DOCTYPE svg PUBLIC "-//W3C//DTD SVG 20010904//EN"
 "http://www.w3.org/TR/2001/REC-SVG-20010904/DTD/svg10.dtd">
<svg version="1.0" xmlns="http://www.w3.org/2000/svg"
 width="512.000000pt" height="512.000000pt" viewBox="0 0 512.000000 512.000000"
 preserveAspectRatio="xMidYMid meet">

<g transform="translate(0.000000,512.000000) scale(0.100000,-0.100000)"
fill="#000000" stroke="none">
<path d="M2420 5044 c-229 -49 -431 -247 -485 -476 -19 -82 -19 -228 0 -303
33 -128 115 -262 207 -337 356 -292 865 -153 1026 280 33 89 42 255 18 356
-79 337 -425 554 -766 480z m282 -164 c131 -40 233 -128 293 -253 68 -140 68
-284 0 -424 -98 -199 -321 -308 -537 -262 -246 52 -419 303 -378 547 14 87 63
191 119 253 120 136 327 193 503 139z"/>
<path d="M224 3896 c-17 -8 -34 -21 -38 -31 -3 -9 -6 -283 -6 -609 l0 -593 23
-21 23 -22 595 0 596 0 21 23 22 23 0 593 c0 367 -4 599 -10 611 -20 38 -55
40 -634 40 -448 -1 -567 -3 -592 -14z m1084 -633 l-3 -488 -485 0 -485 0 -3
488 -2 487 490 0 490 0 -2 -487z"/>
<path d="M3882 3853 c-41 -42 -335 -561 -335 -592 0 -24 294 -551 331 -593 14
-17 44 -18 362 -18 l347 0 20 23 c37 40 333 563 333 588 0 28 -311 575 -342
602 -18 15 -51 17 -355 17 l-335 0 -26 -27z m760 -362 c80 -139 127 -230 123
-240 -3 -8 -63 -114 -132 -233 l-125 -218 -266 2 -267 3 -132 228 -131 229
131 229 132 229 269 -2 268 -3 130 -224z"/>
<path d="M2415 3001 c-88 -23 -169 -93 -206 -175 -20 -46 -23 -81 -40 -510
-10 -254 -20 -488 -21 -521 l-3 -59 -218 234 c-122 132 -234 243 -254 253 -44
23 -125 25 -176 4 -21 -9 -61 -40 -90 -69 -76 -77 -116 -172 -117 -280 0 -94
30 -155 221 -450 100 -155 271 -435 381 -620 l198 -338 0 -68 c0 -38 7 -89 16
-115 21 -63 84 -130 151 -163 l55 -27 437 -19 c240 -10 467 -17 505 -14 83 6
161 41 219 99 45 45 131 217 220 442 103 259 107 276 123 640 9 176 13 343 10
372 -14 157 -135 271 -297 281 l-75 4 -24 45 c-46 86 -134 142 -243 152 l-68
6 -18 52 c-42 124 -164 213 -294 213 l-39 0 7 193 c6 180 6 195 -14 248 -28
74 -79 132 -146 164 -57 29 -147 40 -200 26z m143 -171 c18 -11 40 -36 49 -55
16 -33 16 -66 -2 -533 -25 -662 -26 -639 4 -663 30 -24 72 -24 102 0 22 18 24
27 31 202 5 101 12 238 16 304 l7 120 45 3 c54 3 103 -25 133 -77 20 -32 20
-42 7 -397 -12 -331 -11 -365 3 -388 30 -46 93 -46 123 -1 13 20 18 76 26 302
6 153 15 284 21 291 12 15 30 15 79 2 46 -13 94 -60 107 -104 5 -22 3 -166 -6
-396 -14 -355 -14 -364 5 -389 21 -29 69 -39 101 -21 11 5 25 27 30 48 6 20
15 174 21 342 8 226 14 308 24 318 31 32 134 -15 170 -77 19 -34 19 -42 8
-361 -14 -373 -17 -394 -109 -625 -132 -334 -195 -435 -280 -451 -21 -4 -238
0 -483 10 -483 19 -478 18 -523 78 -17 23 -21 43 -21 115 l-1 88 -213 363
c-117 199 -290 481 -384 625 -94 144 -177 276 -184 294 -37 87 -6 206 69 267
31 25 42 28 62 20 13 -5 141 -136 285 -291 l260 -282 -5 -68 c-4 -47 -2 -76 7
-93 26 -48 103 -52 132 -7 11 17 20 168 41 707 29 754 27 733 94 777 43 29
104 30 149 3z"/>
</g>
</svg>
