<?xml version="1.0" standalone="no"?>
<!DOCTYPE svg PUBLIC "-//W3C//DTD SVG 20010904//EN"
 "http://www.w3.org/TR/2001/REC-SVG-20010904/DTD/svg10.dtd">
<svg version="1.0" xmlns="http://www.w3.org/2000/svg"
 width="512.000000pt" height="512.000000pt" viewBox="0 0 512.000000 512.000000"
 preserveAspectRatio="xMidYMid meet">

<g transform="translate(0.000000,512.000000) scale(0.100000,-0.100000)"
fill="#000000" stroke="none">
<path d="M2517 4836 c-81 -18 -154 -39 -163 -47 -8 -9 -35 -112 -63 -242 -26
-125 -50 -229 -52 -232 -10 -9 -374 -85 -387 -80 -7 2 -82 50 -166 105 -168
110 -172 111 -286 84 -75 -17 -100 -36 -100 -76 0 -39 277 -698 302 -720 11
-10 34 -18 52 -18 17 1 163 29 324 64 160 34 292 62 292 60 0 -3 79 -375 85
-402 4 -14 19 -29 38 -37 29 -11 50 -9 197 22 103 21 171 41 182 51 12 12 30
87 59 247 23 127 47 235 53 241 6 6 58 21 116 32 326 65 621 132 656 150 71
37 115 99 135 191 12 59 -2 125 -30 141 -40 21 -480 160 -507 160 -16 0 -112
-18 -213 -41 -101 -22 -186 -37 -191 -32 -4 4 -23 91 -43 192 -23 115 -43 191
-53 203 -23 24 -59 22 -237 -16z m138 -138 c26 -110 54 -273 48 -278 -12 -10
-295 -71 -301 -65 -3 3 10 77 28 165 29 140 36 161 54 165 30 7 150 33 158 34
4 1 10 -9 13 -21z m805 -372 c168 -55 195 -66 192 -82 -5 -28 -35 -67 -63 -81
-23 -11 -636 -143 -665 -143 -9 0 -14 11 -14 28 0 38 -39 75 -75 70 -50 -6
-61 -36 -116 -338 -29 -157 -56 -290 -61 -296 -8 -10 -177 -49 -182 -42 -2 2
-27 116 -56 253 -60 288 -68 312 -105 321 -59 15 -102 -35 -85 -97 6 -18 6
-36 2 -40 -8 -8 -542 -123 -546 -118 -9 13 -216 519 -216 529 0 22 32 5 194
-100 123 -80 165 -103 189 -102 18 1 331 69 697 151 366 82 676 150 690 150
14 0 113 -28 220 -63z"/>
<path d="M3175 3660 c-22 -24 -24 -76 -4 -94 8 -8 73 -30 144 -51 72 -20 199
-64 284 -97 144 -58 155 -61 180 -47 64 36 47 102 -36 139 -151 68 -463 170
-522 170 -15 0 -36 -9 -46 -20z"/>
<path d="M1339 3491 c-97 -42 -265 -136 -377 -211 -91 -61 -97 -67 -100 -102
-3 -41 23 -78 56 -78 11 0 48 19 83 42 130 84 196 122 324 186 71 36 135 72
142 81 27 35 4 92 -42 105 -11 3 -50 -8 -86 -23z"/>
<path d="M4060 3322 c-31 -10 -50 -36 -50 -68 0 -37 -11 -27 169 -153 51 -35
141 -106 201 -157 85 -73 116 -94 139 -94 49 0 83 50 61 89 -24 46 -208 200
-367 308 -98 68 -130 83 -153 75z"/>
<path d="M2365 3094 c-562 -59 -1053 -291 -1446 -686 -444 -445 -685 -1059
-666 -1693 6 -181 28 -369 50 -415 25 -53 110 -48 123 7 4 13 -2 74 -12 136
-20 121 -27 500 -11 608 l8 55 127 34 c229 59 319 74 379 61 71 -16 113 -63
113 -125 0 -60 -20 -111 -100 -256 -135 -243 -146 -332 -62 -476 20 -35 47
-69 60 -75 31 -17 72 -2 92 34 14 27 13 31 -22 97 -60 111 -53 151 62 360 83
152 110 228 110 312 -1 108 -57 196 -152 239 -46 21 -67 24 -163 23 -95 -1
-131 -7 -262 -41 -84 -22 -153 -38 -153 -34 0 3 11 48 25 98 73 272 220 562
400 788 138 174 371 380 560 495 182 111 528 253 615 252 52 -1 238 -65 338
-117 169 -87 266 -189 298 -314 26 -103 1 -198 -67 -255 -48 -40 -108 -68
-274 -126 -264 -92 -378 -167 -446 -292 -30 -57 -34 -71 -34 -143 0 -103 24
-166 116 -311 101 -158 142 -246 147 -316 5 -72 -1 -98 -33 -137 -36 -42 -84
-47 -231 -22 -134 23 -213 25 -261 8 -60 -22 -117 -72 -148 -128 -26 -47 -30
-64 -30 -134 0 -93 18 -136 83 -201 87 -87 221 -132 418 -141 114 -5 122 -5
143 16 27 27 28 81 3 104 -11 11 -36 17 -63 17 -83 0 -224 20 -287 41 -97 32
-162 99 -162 166 0 42 32 94 71 115 37 20 65 19 213 -8 116 -21 220 -18 272 6
49 24 119 97 139 144 53 126 10 291 -132 502 -121 179 -145 262 -104 348 45
93 129 143 381 231 179 62 253 99 320 162 154 143 158 388 9 577 -70 87 -147
147 -283 217 l-90 47 117 7 c327 21 727 -61 1042 -214 111 -53 267 -145 324
-189 l24 -19 -64 -43 c-99 -67 -197 -150 -279 -236 -188 -198 -252 -325 -254
-504 -1 -77 2 -92 32 -152 65 -133 198 -196 423 -201 l100 -2 -6 -33 c-3 -18
-20 -77 -36 -130 -38 -121 -49 -244 -26 -289 23 -43 70 -80 120 -94 59 -16
132 1 240 56 49 25 96 45 106 45 21 0 80 -38 133 -86 60 -53 129 -84 190 -84
76 1 128 30 184 102 l21 28 7 -48 c8 -63 -9 -328 -30 -447 -15 -88 -15 -97 0
-120 36 -55 107 -37 125 32 30 112 43 290 38 513 -10 379 -70 635 -227 955
-114 234 -237 410 -415 594 -357 368 -786 594 -1300 682 -116 20 -464 34 -570
23z m1726 -757 c124 -123 207 -224 302 -367 123 -186 240 -454 292 -668 17
-70 17 -76 0 -145 -36 -149 -92 -237 -150 -237 -34 0 -60 15 -123 73 -61 55
-142 90 -209 90 -43 0 -68 -8 -131 -40 -97 -51 -146 -67 -179 -58 -25 6 -26 8
-20 63 4 31 20 102 38 157 18 58 33 131 36 175 5 67 3 78 -18 104 -33 42 -72
54 -183 55 -245 1 -346 64 -346 216 0 148 93 301 293 482 67 60 268 203 286
203 4 0 55 -47 112 -103z"/>
<path d="M480 2883 c-133 -135 -251 -276 -278 -331 -15 -30 -15 -34 5 -60 43
-58 84 -43 163 60 36 46 127 147 202 225 82 84 138 149 138 161 0 34 -38 72
-73 72 -28 0 -49 -17 -157 -127z"/>
<path d="M4732 2690 c-39 -36 -29 -67 59 -183 84 -111 106 -130 141 -125 31 4
62 51 54 81 -6 27 -124 190 -162 225 -31 27 -64 28 -92 2z"/>
</g>
</svg>
